<?xml version="1.0" standalone="no"?>
<!DOCTYPE svg PUBLIC "-//W3C//DTD SVG 20010904//EN"
 "http://www.w3.org/TR/2001/REC-SVG-20010904/DTD/svg10.dtd">
<svg version="1.0" xmlns="http://www.w3.org/2000/svg"
 width="7867.000000pt" height="4990.000000pt" viewBox="0 0 7867.000000 4990.000000"
 preserveAspectRatio="xMidYMid meet">

<g transform="translate(0.000000,4990.000000) scale(0.100000,-0.100000)"
fill="#000000" stroke="none">
<path d="M0 26631 l0 -21941 923 461 c507 254 1107 553 1332 664 226 112 1288
640 2360 1175 1073 535 2252 1122 2620 1305 369 183 1476 734 2460 1225 2611
1302 3235 1610 3259 1610 12 0 192 -25 401 -55 538 -77 3969 -570 5085 -730
1771 -254 2750 -395 4630 -665 1037 -149 2322 -334 2855 -410 3433 -493 4754
-683 6025 -866 l1435 -207 340 56 c302 50 965 162 2380 402 479 81 1063 180
1950 330 314 53 647 109 740 125 94 16 384 65 645 109 1336 226 2726 461 3225
545 565 96 1451 246 2050 347 292 49 1021 173 1620 274 600 101 1315 222 1590
269 275 46 727 123 1005 170 278 47 1266 214 2195 371 930 157 2140 362 2690
455 550 93 1932 327 3070 519 1139 193 2698 456 3465 586 1396 236 2268 384
3935 665 490 83 1167 198 1505 255 338 57 1243 210 2010 340 767 130 1978 334
2690 455 712 120 1858 314 2545 430 688 117 1552 263 1920 325 744 126 1863
315 2400 406 193 32 562 95 821 139 259 44 477 80 483 80 8 0 10 3333 9 12892
l-3 12893 -1950 172 c-1072 94 -2391 210 -2930 258 -539 47 -1205 106 -1480
130 -275 24 -1116 99 -1870 165 -3087 272 -3781 333 -4425 390 -371 33 -1111
98 -1645 145 -533 47 -1145 101 -1360 120 -214 19 -876 77 -1470 130 -594 52
-2126 187 -3405 300 -1279 112 -3425 301 -4770 420 -1345 118 -2827 249 -3295
290 -467 41 -1129 100 -1470 130 -341 30 -1056 93 -1590 140 -533 47 -1656
146 -2495 220 -839 74 -2243 198 -3120 275 -877 77 -1770 156 -1985 175 -214
19 -878 78 -1475 130 -597 52 -1389 122 -1760 155 -371 33 -1546 136 -2610
230 -2598 229 -7404 652 -8450 745 -465 41 -1254 110 -1755 155 -500 44 -2109
185 -3575 315 -1466 129 -2946 259 -3290 290 -3071 270 -4274 376 -4940 435
-184 16 -1435 127 -2780 245 -1345 119 -3491 308 -4770 420 -1279 113 -2581
228 -2895 255 -952 84 -1018 90 -1062 96 l-43 5 0 -21940z"/>
</g>
</svg>
